<svg width="48" height="48" viewBox="0 0 48 48" fill="none" xmlns="http://www.w3.org/2000/svg">
<path fill-rule="evenodd" clip-rule="evenodd" d="M27.0002 21C27.0002 22.6569 25.6571 24 24.0002 24C22.3434 24 21.0002 22.6569 21.0002 21C21.0002 19.3431 22.3434 18 24.0002 18C25.6571 18 27.0002 19.3431 27.0002 21ZM29.0002 21C29.0002 23.7614 26.7617 26 24.0002 26C21.2388 26 19.0002 23.7614 19.0002 21C19.0002 18.2386 21.2388 16 24.0002 16C26.7617 16 29.0002 18.2386 29.0002 21ZM31.9865 31.502C31.9149 30.9452 31.7843 30.4065 31.6009 29.892C31.1405 28.6004 30.3478 27.4619 29.3233 26.5752C29.2525 26.5141 29.1807 26.4541 29.1079 26.3953L29.0992 26.3883C29.0582 26.3554 29.0169 26.3228 28.9752 26.2906C28.837 26.1839 28.6695 26.1181 28.495 26.1121C27.984 26.0947 27.7245 26.2137 27.5249 26.4395C27.1656 26.8456 27.3614 27.488 27.7568 27.8683C27.7707 27.8817 27.7848 27.8948 27.7992 27.9075C27.8144 27.9209 27.8299 27.934 27.8457 27.9466C27.8934 27.985 27.9405 28.0242 27.987 28.0639C28.1477 28.2014 28.3007 28.3469 28.4454 28.4998C28.9894 29.0745 29.4169 29.7536 29.6933 30.4998H27.4764H20.5231H18.3063C18.5827 29.7536 19.0101 29.0745 19.5541 28.4998C19.6968 28.3491 19.8475 28.2056 20.0055 28.0699C20.0545 28.0279 20.1041 27.9867 20.1544 27.9462C20.1701 27.9336 20.1855 27.9206 20.2007 27.9072C20.2151 27.8945 20.2292 27.8815 20.2431 27.8681C20.6387 27.4879 20.8347 26.8455 20.4754 26.4393C20.2758 26.2136 20.0163 26.0945 19.5052 26.1118C19.3306 26.1177 19.163 26.1835 19.0247 26.2903C18.9832 26.3224 18.942 26.3549 18.9011 26.3877L18.8922 26.3949C18.8138 26.4581 18.7367 26.5227 18.6609 26.5886C17.6438 27.4734 16.8567 28.6069 16.3986 29.892C16.2153 30.4065 16.0846 30.9452 16.0131 31.502C15.9427 32.0498 16.3971 32.4998 16.9494 32.4998H18.3063H29.6933H31.0501C31.6024 32.4998 32.0569 32.0498 31.9865 31.502Z" fill="white" fill-opacity="0.5"/>
</svg>
